<?xml version="1.0" encoding="utf-8"?>
<!-- Generator: Adobe Illustrator 15.1.0, SVG Export Plug-In . SVG Version: 6.00 Build 0)  -->
<!DOCTYPE svg PUBLIC "-//W3C//DTD SVG 1.1//EN" "http://www.w3.org/Graphics/SVG/1.1/DTD/svg11.dtd">
<svg version="1.1" id="レイヤー_1" xmlns="http://www.w3.org/2000/svg" xmlns:xlink="http://www.w3.org/1999/xlink" x="0px"
	 y="0px" width="27px" height="27px" viewBox="0 0 27 27" enable-background="new 0 0 27 27" xml:space="preserve">
<path fill="#394850" d="M22.436,12.579h-0.108h-3.734c-0.102,0-0.102,0-0.102-0.098c0-0.9,0-1.802,0.004-2.702
	c0.002-0.232,0.041-0.462,0.112-0.685c0.153-0.473,0.486-0.751,0.954-0.883c0.313-0.089,0.632-0.106,0.954-0.108
	c0.651-0.004,1.304-0.001,1.956-0.001h0.094V4.525c-0.125-0.014-0.248-0.031-0.372-0.041c-0.401-0.028-0.804-0.065-1.207-0.079
	c-0.56-0.021-1.12-0.036-1.681-0.03c-0.85,0.01-1.664,0.179-2.426,0.564c-1.02,0.518-1.717,1.325-2.129,2.387
	C14.586,7.756,14.48,8.203,14.42,8.66c-0.05,0.388-0.066,0.776-0.065,1.166c0,0.887,0,1.773,0,2.661c0,0.092,0,0.092-0.093,0.092
	h-3.236h-0.102v4h0.108h3.222c0.101,0,0.101,0,0.101,0.1v10.016c0,0.098,0,0.098-0.096,0.098c-4.173,0-8.346-0.002-12.519,0.002
	c-0.737,0-1.331-0.521-1.449-1.178c-0.02-0.111-0.024-0.227-0.024-0.34c-0.001-2.879-0.001-5.756-0.001-8.635
	c0-4.914,0.001-9.828-0.002-14.742c0-0.367,0.096-0.697,0.333-0.979C0.874,0.59,1.229,0.413,1.662,0.397
	c0.043-0.002,0.087-0.002,0.129-0.002c7.781,0,15.562,0,23.342-0.003c0.311,0,0.603,0.058,0.864,0.231
	c0.437,0.293,0.658,0.706,0.666,1.232v0.062c0,7.783-0.002,15.565,0,23.348c0,0.326-0.065,0.631-0.258,0.896
	c-0.299,0.42-0.707,0.629-1.224,0.629h-5.364h-1.23c-0.096,0-0.096,0-0.096-0.094V16.67c0-0.092,0-0.092,0.096-0.092h3.216
	c0.024,0,0.052,0.006,0.073-0.004c0.021-0.008,0.048-0.029,0.05-0.049c0.058-0.432,0.112-0.865,0.168-1.299
	c0.052-0.406,0.106-0.811,0.159-1.217c0.053-0.405,0.103-0.812,0.154-1.218C22.415,12.724,22.426,12.658,22.436,12.579"/>
</svg>
