<?xml version="1.0" encoding="utf-8"?>
<!-- Generator: Adobe Illustrator 15.1.0, SVG Export Plug-In . SVG Version: 6.00 Build 0)  -->
<!DOCTYPE svg PUBLIC "-//W3C//DTD SVG 1.1//EN" "http://www.w3.org/Graphics/SVG/1.1/DTD/svg11.dtd">
<svg version="1.1" id="レイヤー_1" xmlns="http://www.w3.org/2000/svg" xmlns:xlink="http://www.w3.org/1999/xlink" x="0px"
	 y="0px" width="190px" height="30px" viewBox="5 0 190 30" enable-background="new 5 0 190 30" xml:space="preserve">
<g id="レイヤー_1_1_">
	<path fill="#3E3A39" d="M157.703,7.979c-3.945,0-7.155,3.208-7.155,7.152c0,3.944,3.21,7.15,7.155,7.15s7.156-3.206,7.156-7.15
		C164.859,11.188,161.648,7.979,157.703,7.979 M157.703,21.244c-3.373,0-6.117-2.741-6.117-6.112c0-3.37,2.744-6.113,6.117-6.113
		s6.117,2.743,6.117,6.113C163.82,18.502,161.076,21.244,157.703,21.244"/>
	<path fill="#3E3A39" d="M118.865,7.979c-3.946,0-7.156,3.208-7.156,7.152c0,3.944,3.21,7.15,7.156,7.15
		c3.945,0,7.154-3.206,7.154-7.15C126.021,11.188,122.811,7.979,118.865,7.979 M118.865,21.244c-3.373,0-6.117-2.741-6.117-6.112
		c0-3.37,2.744-6.113,6.117-6.113s6.117,2.743,6.117,6.113C124.982,18.502,122.238,21.244,118.865,21.244"/>
	<polygon fill="#3E3A39" points="146.238,8.834 146.238,8.218 143.77,8.218 143.77,8.834 144.484,8.834 144.484,21.43 143.77,21.43 
		143.77,22.046 146.238,22.046 146.238,21.43 145.523,21.43 145.523,8.834 	"/>
	<polygon fill="#3E3A39" points="139.924,8.215 128.404,8.215 128.404,8.218 128.404,9.923 129.021,9.923 129.021,9.217 
		133.646,9.217 133.646,21.43 132.93,21.43 132.93,22.045 135.398,22.045 135.398,21.43 134.684,21.43 134.684,9.217 139.307,9.217 
		139.307,9.923 139.924,9.923 	"/>
	<path fill="#3E3A39" d="M195.008,18.49c0-0.033,0.055-3.31-5.143-3.684c-1.885-0.136-4.115-0.72-4.027-2.737
		c0.004-0.127,0.176-3.099,3.926-3.148c1.725-0.035,3.111,0.771,4.02,1.495v0.599h0.598V8.621h-0.598v0.622
		c-1.016-0.675-2.389-1.293-4.031-1.279c-3.715,0.049-4.811,2.679-4.869,4.063c-0.055,1.259,0.514,3.418,4.916,3.735
		c4.235,0.305,4.258,2.603,4.254,2.733c0.004,0.01,0.035,1.099-0.764,1.911c-0.652,0.666-1.689,0.992-3.07,0.962
		c-2.506-0.052-3.967-0.899-4.729-1.56v-0.615h-0.598v2.394h0.598v-0.584c0.969,0.644,2.477,1.276,4.709,1.322
		c0.063,0.002,0.125,0.002,0.188,0.002c1.576,0,2.787-0.425,3.602-1.263C195.07,19.947,195.012,18.509,195.008,18.49"/>
	<polygon fill="#3E3A39" points="180.717,8.208 178.247,8.208 178.247,8.825 178.971,8.825 178.971,20.423 170.09,8.248 
		168.219,8.248 168.219,8.865 168.926,8.865 168.926,21.477 168.204,21.477 168.204,22.094 170.674,22.094 170.674,21.477 
		169.965,21.477 169.965,9.839 178.848,22.018 180.01,22.018 180.01,8.825 180.717,8.825 	"/>
	<polygon fill="#3E3A39" points="107.912,8.811 107.912,8.194 106.111,8.194 100.458,20.643 94.975,8.194 93.171,8.194 
		93.171,8.811 93.847,8.811 93.847,21.378 93.179,21.378 93.179,21.997 95.595,21.997 95.595,21.378 94.92,21.378 94.92,10.758 
		99.861,21.969 101.048,21.969 106.162,10.692 106.162,21.378 105.496,21.378 105.496,21.997 107.912,21.997 107.912,21.378 
		107.238,21.378 107.238,8.811 	"/>
	<polygon fill="#3E3A39" points="88.487,9.906 88.487,8.199 88.112,8.199 87.796,8.199 79.917,8.199 79.917,22.246 87.796,22.246 
		88.487,22.246 88.487,20.542 87.796,20.542 87.796,21.204 80.959,21.204 80.959,15.743 87.286,15.743 87.286,16.412 87.978,16.412 
		87.978,14.036 87.286,14.036 87.286,14.701 80.959,14.701 80.959,9.239 87.796,9.239 87.796,9.906 	"/>
	<polygon fill="#3E3A39" points="21.484,8.937 21.484,8.32 19.683,8.32 14.031,20.768 8.547,8.32 6.744,8.32 6.744,8.937 
		7.419,8.937 7.419,21.505 6.751,21.505 6.751,22.123 9.167,22.123 9.167,21.505 8.493,21.505 8.493,10.884 13.433,22.096 
		14.62,22.096 19.735,10.818 19.735,21.505 19.068,21.505 19.068,22.123 21.484,22.123 21.484,21.505 20.81,21.505 20.81,8.937 	"/>
	<polygon fill="#3E3A39" points="54.9,8.341 53.269,8.341 53.228,8.341 48.127,20.949 42.953,8.341 42.915,8.341 41.282,8.341 
		41.282,8.958 41.987,8.958 47.388,22.116 48.871,22.116 54.192,8.958 54.9,8.958 	"/>
	<path fill="#3E3A39" d="M39.18,15.229c0-3.944-3.21-7.152-7.156-7.152c-3.946,0-7.156,3.208-7.156,7.152s3.21,7.151,7.156,7.151
		C35.97,22.38,39.18,19.173,39.18,15.229 M32.024,21.341c-3.373,0-6.117-2.741-6.117-6.112c0-3.371,2.744-6.114,6.117-6.114
		s6.117,2.743,6.117,6.114C38.142,18.6,35.397,21.341,32.024,21.341"/>
	<polygon fill="#3E3A39" points="67.143,9.905 67.143,8.198 58.572,8.198 58.572,22.245 66.451,22.245 67.143,22.245 67.143,20.541 
		66.451,20.541 66.451,21.203 59.615,21.203 59.615,15.742 65.941,15.742 65.941,16.411 66.633,16.411 66.633,14.035 65.941,14.035 
		65.941,14.7 59.615,14.7 59.615,9.238 66.451,9.238 66.451,9.905 	"/>
</g>
</svg>
