<?xml version="1.0" encoding="utf-8"?>
<!-- Generator: Adobe Illustrator 15.1.0, SVG Export Plug-In . SVG Version: 6.00 Build 0)  -->
<!DOCTYPE svg PUBLIC "-//W3C//DTD SVG 1.1//EN" "http://www.w3.org/Graphics/SVG/1.1/DTD/svg11.dtd">
<svg version="1.1" id="レイヤー_1" xmlns="http://www.w3.org/2000/svg" xmlns:xlink="http://www.w3.org/1999/xlink" x="0px"
	 y="0px" width="200px" height="310px" viewBox="0 0 200 310" enable-background="new 0 0 200 310" xml:space="preserve">
<rect x="-0.069" y="-0.116" fill="#E1E2E3" width="202" height="310"/>
<rect x="68.8" y="9.261" fill="#9EA9AF" width="0.501" height="8.427"/>
<rect x="43.821" y="16.931" transform="matrix(0.342 0.9397 -0.9397 0.342 47.7527 -33.8327)" fill="#9EA9AF" width="8.427" height="0.5"/>
<rect x="25.34" y="27.6" transform="matrix(0.6428 0.766 -0.766 0.6428 31.8913 -12.6909)" fill="#9EA9AF" width="8.427" height="0.501"/>
<rect x="11.623" y="43.949" transform="matrix(0.866 0.5 -0.5 0.866 24.2229 -1.9964)" fill="#9EA9AF" width="8.427" height="0.499"/>
<rect x="4.324" y="64.001" transform="matrix(0.9848 0.1736 -0.1736 0.9848 11.2837 -0.5066)" fill="#9EA9AF" width="8.427" height="0.5"/>
<rect x="8.288" y="81.378" transform="matrix(0.1739 0.9848 -0.9848 0.1739 91.3399 62.2995)" fill="#9EA9AF" width="0.5" height="8.427"/>
<rect x="15.587" y="101.43" transform="matrix(0.5003 0.8658 -0.8658 0.5003 99.3821 39.0741)" fill="#9EA9AF" width="0.5" height="8.427"/>
<rect x="29.304" y="117.777" transform="matrix(0.7677 0.6408 -0.6408 0.7677 85.0311 9.3967)" fill="#9EA9AF" width="0.5" height="8.428"/>
<rect x="47.785" y="128.448" transform="matrix(0.9397 0.3419 -0.3419 0.9397 48.2517 -8.4284)" fill="#9EA9AF" width="0.5" height="8.427"/>
<rect x="68.8" y="132.153" fill="#9EA9AF" width="0.501" height="8.429"/>
<rect x="85.852" y="132.412" transform="matrix(0.342 0.9397 -0.9397 0.342 183.9286 2.6587)" fill="#9EA9AF" width="8.427" height="0.499"/>
<rect x="104.334" y="121.741" transform="matrix(0.6429 0.766 -0.766 0.6429 132.2027 -39.5787)" fill="#9EA9AF" width="8.427" height="0.501"/>
<rect x="118.051" y="105.394" transform="matrix(0.866 0.5 -0.5 0.866 69.2093 -46.981)" fill="#9EA9AF" width="8.427" height="0.5"/>
<rect x="125.35" y="85.341" transform="matrix(0.9848 0.1736 -0.1736 0.9848 16.8259 -21.1926)" fill="#9EA9AF" width="8.427" height="0.5"/>
<rect x="129.312" y="60.038" transform="matrix(0.1739 0.9848 -0.9848 0.1739 170.3039 -74.5099)" fill="#9EA9AF" width="0.5" height="8.427"/>
<rect x="122.014" y="39.984" transform="matrix(0.5003 0.8658 -0.8658 0.5003 99.358 -83.7753)" fill="#9EA9AF" width="0.5" height="8.428"/>
<rect x="108.297" y="23.637" transform="matrix(0.7665 0.6423 -0.6423 0.7665 43.2388 -63.2147)" fill="#9EA9AF" width="0.499" height="8.428"/>
<rect x="89.816" y="12.967" transform="matrix(0.94 0.3413 -0.3413 0.94 11.2706 -29.7058)" fill="#9EA9AF" width="0.501" height="8.427"/>
<rect x="56.003" y="15.7" transform="matrix(0.1737 0.9848 -0.9848 0.1737 64.1731 -44.5805)" fill="#9EA9AF" width="5.297" height="0.5"/>
<rect x="36.46" y="22.812" transform="matrix(0.5 0.866 -0.866 0.5 39.5265 -22.3388)" fill="#9EA9AF" width="5.299" height="0.5"/>
<rect x="20.539" y="36.184" transform="matrix(0.7661 0.6428 -0.6428 0.7661 28.8413 -6.3779)" fill="#9EA9AF" width="5.286" height="0.5"/>
<rect x="10.124" y="54.189" transform="matrix(0.9397 0.3421 -0.3421 0.9397 19.3939 -1.0862)" fill="#9EA9AF" width="5.305" height="0.5"/>
<rect x="6.527" y="74.671" fill="#9EA9AF" width="5.291" height="0.5"/>
<rect x="12.526" y="92.75" transform="matrix(0.3419 0.9397 -0.9397 0.3419 98.0614 50.778)" fill="#9EA9AF" width="0.5" height="5.306"/>
<rect x="22.933" y="110.765" transform="matrix(0.6429 0.766 -0.766 0.6429 95.1471 22.7441)" fill="#9EA9AF" width="0.5" height="5.287"/>
<rect x="38.86" y="124.131" transform="matrix(0.8658 0.5003 -0.5003 0.8658 68.6809 -2.5577)" fill="#9EA9AF" width="0.5" height="5.299"/>
<rect x="58.402" y="131.244" transform="matrix(0.9844 0.1761 -0.1761 0.9844 24.4994 -8.2372)" fill="#9EA9AF" width="0.499" height="5.297"/>
<rect x="76.8" y="133.643" transform="matrix(0.1737 0.9848 -0.9848 0.1737 197.5098 32.4)" fill="#9EA9AF" width="5.297" height="0.5"/>
<rect x="96.342" y="126.53" transform="matrix(0.5 0.866 -0.866 0.5 159.2896 -22.3392)" fill="#9EA9AF" width="5.299" height="0.5"/>
<rect x="112.274" y="113.159" transform="matrix(0.766 0.6428 -0.6428 0.766 99.7889 -47.3355)" fill="#9EA9AF" width="5.287" height="0.499"/>
<rect x="122.671" y="95.152" transform="matrix(0.9397 0.3419 -0.3419 0.9397 40.1777 -37.1034)" fill="#9EA9AF" width="5.306" height="0.501"/>
<rect x="126.283" y="74.671" fill="#9EA9AF" width="5.29" height="0.5"/>
<rect x="125.074" y="51.786" transform="matrix(0.3419 0.9397 -0.9397 0.3419 133.6338 -81.945)" fill="#9EA9AF" width="0.5" height="5.306"/>
<rect x="114.668" y="33.79" transform="matrix(0.6417 0.7669 -0.7669 0.6417 69.1146 -75.0811)" fill="#9EA9AF" width="0.499" height="5.286"/>
<rect x="98.741" y="20.412" transform="matrix(0.8658 0.5003 -0.5003 0.8658 24.8207 -46.4353)" fill="#9EA9AF" width="0.5" height="5.299"/>
<rect x="79.198" y="13.301" transform="matrix(0.9848 0.1739 -0.1739 0.9848 3.984 -13.5728)" fill="#9EA9AF" width="0.5" height="5.297"/>
<rect x="48.933" y="15.319" transform="matrix(0.2589 0.9659 -0.9659 0.2589 54.4261 -39.7966)" fill="#9EA9AF" width="8.427" height="0.501"/>
<rect x="29.593" y="24.337" transform="matrix(0.5735 0.8192 -0.8192 0.5735 34.5584 -17.2081)" fill="#9EA9AF" width="8.427" height="0.5"/>
<rect x="14.504" y="39.428" transform="matrix(0.8191 0.5736 -0.5736 0.8191 26.1439 -3.5601)" fill="#9EA9AF" width="8.428" height="0.499"/>
<rect x="5.485" y="58.767" transform="matrix(0.9659 0.2588 -0.2588 0.9659 15.603 -0.4993)" fill="#9EA9AF" width="8.427" height="0.501"/>
<rect x="7.588" y="76.063" transform="matrix(0.0879 0.9961 -0.9961 0.0879 87.1149 65.4132)" fill="#9EA9AF" width="0.5" height="8.428"/>
<rect x="13.111" y="96.675" transform="matrix(0.422 0.9066 -0.9066 0.422 99.1865 46.1977)" fill="#9EA9AF" width="0.5" height="8.429"/>
<rect x="25.352" y="114.157" transform="matrix(0.7071 0.7071 -0.7071 0.7071 91.199 16.5668)" fill="#9EA9AF" width="0.5" height="8.426"/>
<rect x="42.832" y="126.397" transform="matrix(0.9062 0.4228 -0.4228 0.9062 59.2585 -5.9671)" fill="#9EA9AF" width="0.499" height="8.426"/>
<rect x="63.445" y="131.92" transform="matrix(0.9961 0.0879 -0.0879 0.9961 12.2118 -5.0715)" fill="#9EA9AF" width="0.5" height="8.427"/>
<rect x="80.739" y="134.024" transform="matrix(0.2588 0.9659 -0.9659 0.2588 192.6722 17.4702)" fill="#9EA9AF" width="8.428" height="0.5"/>
<rect x="100.081" y="125.005" transform="matrix(0.5736 0.8192 -0.8192 0.5736 147.0774 -32.0206)" fill="#9EA9AF" width="8.426" height="0.5"/>
<rect x="115.17" y="109.915" transform="matrix(0.8191 0.5736 -0.5736 0.8191 84.7923 -48.5557)" fill="#9EA9AF" width="8.427" height="0.5"/>
<rect x="124.189" y="90.574" transform="matrix(0.9659 0.2588 -0.2588 0.9659 27.8739 -30.1313)" fill="#9EA9AF" width="8.428" height="0.501"/>
<rect x="130.012" y="65.352" transform="matrix(0.0879 0.9961 -0.9961 0.0879 188.1094 -66.3068)" fill="#9EA9AF" width="0.5" height="8.427"/>
<rect x="124.49" y="44.739" transform="matrix(0.4224 0.9064 -0.9064 0.4224 116.4202 -84.7896)" fill="#9EA9AF" width="0.499" height="8.428"/>
<rect x="112.248" y="27.259" transform="matrix(0.7081 0.7061 -0.7061 0.7081 55.0641 -70.2513)" fill="#9EA9AF" width="0.501" height="8.427"/>
<rect x="94.769" y="15.019" transform="matrix(0.9066 0.422 -0.422 0.9066 16.993 -38.304)" fill="#9EA9AF" width="0.5" height="8.427"/>
<rect x="74.155" y="9.495" transform="matrix(0.9961 0.0879 -0.0879 0.9961 1.4929 -6.4867)" fill="#9EA9AF" width="0.5" height="8.427"/>
<rect x="41.095" y="20.4" transform="matrix(0.4226 0.9063 -0.9063 0.4226 43.9708 -27.7222)" fill="#9EA9AF" width="5.298" height="0.5"/>
<rect x="24.058" y="32.329" transform="matrix(0.7072 0.7071 -0.7071 0.7072 30.856 -9.343)" fill="#9EA9AF" width="5.299" height="0.499"/>
<rect x="12.14" y="49.366" transform="matrix(0.9063 0.4227 -0.4227 0.9063 22.3567 -1.599)" fill="#9EA9AF" width="5.288" height="0.5"/>
<rect x="6.739" y="69.452" transform="matrix(-0.9962 -0.087 0.087 -0.9962 12.683 139.9568)" fill="#9EA9AF" width="5.307" height="0.5"/>
<rect x="10.963" y="87.773" transform="matrix(0.26 0.9656 -0.9656 0.26 95.6071 56.0845)" fill="#9EA9AF" width="0.5" height="5.291"/>
<rect x="19.745" y="106.617" transform="matrix(0.5744 0.8186 -0.8186 0.5744 97.9574 30.1396)" fill="#9EA9AF" width="0.5" height="5.306"/>
<rect x="34.457" y="121.326" transform="matrix(0.8179 0.5753 -0.5753 0.8179 77.6379 2.6028)" fill="#9EA9AF" width="0.499" height="5.286"/>
<rect x="53.302" y="130.113" transform="matrix(0.9661 0.2581 -0.2581 0.9661 36.0876 -9.3244)" fill="#9EA9AF" width="0.499" height="5.298"/>
<rect x="71.619" y="134.325" transform="matrix(-0.0872 -0.9962 0.9962 -0.0872 -53.3208 220.2907)" fill="#9EA9AF" width="5.299" height="0.499"/>
<rect x="91.708" y="128.942" transform="matrix(0.4227 0.9063 -0.9063 0.4227 171.5526 -10.9317)" fill="#9EA9AF" width="5.297" height="0.5"/>
<rect x="108.743" y="117.014" transform="matrix(0.7071 0.7071 -0.7071 0.7071 115.5444 -44.421)" fill="#9EA9AF" width="5.299" height="0.499"/>
<rect x="120.672" y="99.975" transform="matrix(0.9062 0.4227 -0.4227 0.9062 53.9306 -42.7348)" fill="#9EA9AF" width="5.288" height="0.5"/>
<rect x="126.055" y="79.891" transform="matrix(-0.9962 -0.0871 0.0871 -0.9962 249.9511 171.1816)" fill="#9EA9AF" width="5.306" height="0.499"/>
<rect x="126.638" y="56.778" transform="matrix(0.2597 0.9657 -0.9657 0.2597 151.3156 -78.5435)" fill="#9EA9AF" width="0.5" height="5.291"/>
<rect x="117.856" y="37.919" transform="matrix(0.5748 0.8183 -0.8183 0.5748 83.4127 -79.392)" fill="#9EA9AF" width="0.499" height="5.306"/>
<rect x="103.144" y="23.23" transform="matrix(0.819 0.5737 -0.5737 0.819 33.5536 -54.6379)" fill="#9EA9AF" width="0.5" height="5.288"/>
<rect x="84.298" y="14.431" transform="matrix(0.9657 0.2595 -0.2595 0.9657 7.328 -21.3539)" fill="#9EA9AF" width="0.501" height="5.298"/>
<rect x="61.182" y="15.018" transform="matrix(-0.0872 -0.9962 0.9962 -0.0872 54.186 80.1869)" fill="#9EA9AF" width="5.298" height="0.499"/>
<polygon fill="#FFFFFF" points="77.448,77.834 102.089,73.848 77.448,69.86 85.714,55.648 72.807,64.922 69.339,37.448 
	65.873,64.922 52.965,55.648 61.231,69.86 36.59,73.848 61.231,77.834 52.965,92.047 65.873,82.773 69.339,110.246 72.807,82.773 
	85.714,92.047 "/>
<path fill="#394850" d="M191.137,185.89l2.145-0.386l-26.752-84.464l-6.112-2.999l1.147-5.236c0,0-1.353-1.152-6.553-1.453
	l-0.163-5.715l2.159-1.43l3.547-12.193c-2.539-7.365-8.91-7.347-8.91-7.347s-6.506-0.019-8.912,7.347l3.547,12.193l2.161,1.43
	l-0.165,5.729c-4.99,0.324-6.297,1.439-6.297,1.439l1.146,5.236l-5.521,2.792l-31.64,26.122L86.74,107.748l-0.967,0.977l-5.835-5.49
	l-10.528,6.717l-5.519-2.831l-2.378,0.401l5.137,5.278l2.501,0.624l9.615-3.797l2.834,3.313l-5.377,5.431l28.124,18.753l3.58-0.773
	l33.396-26.23c-3.998,26.787-13.286,88.884-13.552,89.417c-0.211,0.421,2.392,2.153,8.54,3.409l1.055,21.238l-4.1,67.128
	c0.55,0.22,1.092,0.41,1.631,0.581c-0.893,0.691-1.855,1.366-2.904,2.336c-2.337,2.161-10.013,3.994-12.622,4.876
	c-2.037,0.689-1.881,3.106-1.881,3.106s10.4-0.045,12.955-0.333s5.063-2.446,7.021-2.662c1.959-0.215,1.833,1.821,1.833,1.821
	l5.87-0.392c0,0,0.178-4.584-0.374-6.719c-0.104-0.402-0.189-0.946-0.261-1.563c0.815-0.176,1.638-0.386,2.484-0.67l1.136-0.382
	l0.624-67.128l0.581-19.908c0.783,0.019,1.581,0.03,2.411,0.03c0.812,0,1.593-0.012,2.359-0.028l0.581,19.906l0.623,67.128
	l0.638,0.382c0.994,0.334,1.984,0.574,2.972,0.76c-0.069,0.578-0.151,1.092-0.249,1.474c-0.552,2.135-0.374,6.719-0.374,6.719
	l5.87,0.392c0,0-0.126-2.036,1.833-1.821c1.958,0.216,4.466,2.374,7.02,2.662c2.556,0.288,12.955,0.333,12.955,0.333
	s0.157-2.417-1.881-3.106c-2.609-0.882-10.284-2.715-12.622-4.876c-1.051-0.972-2.016-1.647-2.909-2.34
	c0.546-0.171,1.093-0.359,1.637-0.577l-4.101-67.128l1.057-21.228c6.185-1.257,8.803-2.998,8.592-3.42
	c-0.261-0.519-9.073-59.409-13.228-87.234l7.337,26.701l12.339,48.492l5.131-0.923l0.784,3.324l-0.841,2.19l-0.178,7.593
	l6.374,2.924l1.335-3.154C194.825,199.449,192.594,191.306,191.137,185.89"/>
</svg>
